<?xml version="1.0" encoding="UTF-8" standalone="no"?>
<!DOCTYPE svg PUBLIC "-//W3C//DTD SVG 1.1//EN" "http://www.w3.org/Graphics/SVG/1.1/DTD/svg11.dtd">
<svg width="100%" height="100%" viewBox="0 0 24 24" version="1.1" xmlns="http://www.w3.org/2000/svg" xmlns:xlink="http://www.w3.org/1999/xlink" xml:space="preserve" xmlns:serif="http://www.serif.com/" style="fill-rule:evenodd;clip-rule:evenodd;stroke-linecap:round;stroke-linejoin:round;">
    <g transform="matrix(-1,-1.22465e-16,1.22465e-16,-1,23.6826,24.0001)">
        <path d="M14,9L14,5C14,3.354 12.646,2 11,2L7,11L7,22L18.28,22C19.273,22.011 20.131,21.282 20.28,20.3L21.66,11.3C21.675,11.201 21.683,11.1 21.683,11C21.683,9.903 20.78,9 19.683,9C19.675,9 19.668,9 19.66,9L14,9ZM7,22L4,22C2.903,22 2,21.097 2,20L2,13C2,11.903 2.903,11 4,11L7,11" style="fill:none;stroke:rgb(76,150,137);stroke-width:2px;"/>
    </g>
</svg>
